<mxfile host="app.diagrams.net" modified="2024-04-29T08:11:17.330Z" agent="Mozilla/5.0 (Windows NT 10.0; Win64; x64) AppleWebKit/537.36 (KHTML, like Gecko) Chrome/121.0.0.0 Safari/537.36 OPR/107.0.0.0" etag="FyINr9QBOQ6gH8sYFoFi" version="24.3.1" type="github">
  <diagram name="Seite-1" id="SgFTbVYPc5gPEPlRsAPC">
    <mxGraphModel dx="2748" dy="2061" grid="1" gridSize="10" guides="1" tooltips="1" connect="1" arrows="1" fold="1" page="1" pageScale="1" pageWidth="827" pageHeight="1169" math="0" shadow="0">
      <root>
        <mxCell id="0" />
        <mxCell id="1" parent="0" />
        <mxCell id="79ETfCYZExZ3tthihmUW-4" style="edgeStyle=orthogonalEdgeStyle;rounded=0;orthogonalLoop=1;jettySize=auto;html=1;exitX=0.25;exitY=1;exitDx=0;exitDy=0;entryX=0;entryY=0.5;entryDx=0;entryDy=0;" parent="1" source="uwXu4CTKfHLPhr1_xGVC-1" target="79ETfCYZExZ3tthihmUW-3" edge="1">
          <mxGeometry relative="1" as="geometry">
            <mxPoint x="60" y="110" as="targetPoint" />
            <Array as="points">
              <mxPoint x="60" y="80" />
              <mxPoint x="60" y="210" />
            </Array>
          </mxGeometry>
        </mxCell>
        <mxCell id="79ETfCYZExZ3tthihmUW-5" style="edgeStyle=orthogonalEdgeStyle;rounded=0;orthogonalLoop=1;jettySize=auto;html=1;exitX=0.25;exitY=1;exitDx=0;exitDy=0;entryX=0;entryY=0.5;entryDx=0;entryDy=0;" parent="1" source="uwXu4CTKfHLPhr1_xGVC-1" target="79ETfCYZExZ3tthihmUW-1" edge="1">
          <mxGeometry relative="1" as="geometry">
            <Array as="points">
              <mxPoint x="60" y="80" />
              <mxPoint x="60" y="160" />
            </Array>
          </mxGeometry>
        </mxCell>
        <mxCell id="79ETfCYZExZ3tthihmUW-22" style="edgeStyle=orthogonalEdgeStyle;rounded=0;orthogonalLoop=1;jettySize=auto;html=1;exitX=0.25;exitY=1;exitDx=0;exitDy=0;entryX=0;entryY=0.5;entryDx=0;entryDy=0;" parent="1" source="uwXu4CTKfHLPhr1_xGVC-1" target="79ETfCYZExZ3tthihmUW-21" edge="1">
          <mxGeometry relative="1" as="geometry">
            <Array as="points">
              <mxPoint x="60" y="80" />
              <mxPoint x="60" y="110" />
            </Array>
          </mxGeometry>
        </mxCell>
        <mxCell id="uwXu4CTKfHLPhr1_xGVC-1" value="Player" style="rounded=1;arcSize=10;whiteSpace=wrap;html=1;align=center;" parent="1" vertex="1">
          <mxGeometry x="40" y="40" width="120" height="40" as="geometry" />
        </mxCell>
        <mxCell id="79ETfCYZExZ3tthihmUW-1" value="username" style="ellipse;whiteSpace=wrap;html=1;align=center;" parent="1" vertex="1">
          <mxGeometry x="80" y="140" width="80" height="40" as="geometry" />
        </mxCell>
        <mxCell id="79ETfCYZExZ3tthihmUW-3" value="level" style="ellipse;whiteSpace=wrap;html=1;align=center;" parent="1" vertex="1">
          <mxGeometry x="80" y="190" width="80" height="40" as="geometry" />
        </mxCell>
        <mxCell id="79ETfCYZExZ3tthihmUW-6" style="edgeStyle=orthogonalEdgeStyle;rounded=0;orthogonalLoop=1;jettySize=auto;html=1;exitX=0.25;exitY=1;exitDx=0;exitDy=0;entryX=0;entryY=0.5;entryDx=0;entryDy=0;" parent="1" source="79ETfCYZExZ3tthihmUW-8" target="79ETfCYZExZ3tthihmUW-10" edge="1">
          <mxGeometry relative="1" as="geometry">
            <mxPoint x="380" y="110" as="targetPoint" />
            <Array as="points">
              <mxPoint x="380" y="80" />
              <mxPoint x="380" y="160" />
            </Array>
          </mxGeometry>
        </mxCell>
        <mxCell id="79ETfCYZExZ3tthihmUW-7" style="edgeStyle=orthogonalEdgeStyle;rounded=0;orthogonalLoop=1;jettySize=auto;html=1;exitX=0.25;exitY=1;exitDx=0;exitDy=0;entryX=0;entryY=0.5;entryDx=0;entryDy=0;" parent="1" source="79ETfCYZExZ3tthihmUW-8" target="79ETfCYZExZ3tthihmUW-9" edge="1">
          <mxGeometry relative="1" as="geometry">
            <Array as="points">
              <mxPoint x="380" y="80" />
              <mxPoint x="380" y="110" />
            </Array>
          </mxGeometry>
        </mxCell>
        <mxCell id="79ETfCYZExZ3tthihmUW-8" value="Village" style="rounded=1;arcSize=10;whiteSpace=wrap;html=1;align=center;" parent="1" vertex="1">
          <mxGeometry x="360" y="40" width="120" height="40" as="geometry" />
        </mxCell>
        <mxCell id="79ETfCYZExZ3tthihmUW-9" value="&lt;u&gt;id&lt;/u&gt;" style="ellipse;whiteSpace=wrap;html=1;align=center;" parent="1" vertex="1">
          <mxGeometry x="400" y="90" width="80" height="40" as="geometry" />
        </mxCell>
        <mxCell id="79ETfCYZExZ3tthihmUW-10" value="level" style="ellipse;whiteSpace=wrap;html=1;align=center;" parent="1" vertex="1">
          <mxGeometry x="400" y="140" width="80" height="40" as="geometry" />
        </mxCell>
        <mxCell id="79ETfCYZExZ3tthihmUW-13" style="edgeStyle=orthogonalEdgeStyle;rounded=0;orthogonalLoop=1;jettySize=auto;html=1;exitX=0.25;exitY=1;exitDx=0;exitDy=0;entryX=0;entryY=0.5;entryDx=0;entryDy=0;" parent="1" source="79ETfCYZExZ3tthihmUW-15" target="79ETfCYZExZ3tthihmUW-17" edge="1">
          <mxGeometry relative="1" as="geometry">
            <mxPoint x="690" y="110" as="targetPoint" />
            <Array as="points">
              <mxPoint x="690" y="80" />
              <mxPoint x="690" y="160" />
            </Array>
          </mxGeometry>
        </mxCell>
        <mxCell id="79ETfCYZExZ3tthihmUW-14" style="edgeStyle=orthogonalEdgeStyle;rounded=0;orthogonalLoop=1;jettySize=auto;html=1;exitX=0.25;exitY=1;exitDx=0;exitDy=0;entryX=0;entryY=0.5;entryDx=0;entryDy=0;" parent="1" source="79ETfCYZExZ3tthihmUW-15" target="79ETfCYZExZ3tthihmUW-16" edge="1">
          <mxGeometry relative="1" as="geometry">
            <Array as="points">
              <mxPoint x="690" y="80" />
              <mxPoint x="690" y="110" />
            </Array>
          </mxGeometry>
        </mxCell>
        <mxCell id="79ETfCYZExZ3tthihmUW-19" style="edgeStyle=orthogonalEdgeStyle;rounded=0;orthogonalLoop=1;jettySize=auto;html=1;exitX=0.25;exitY=1;exitDx=0;exitDy=0;entryX=0;entryY=0.5;entryDx=0;entryDy=0;" parent="1" source="79ETfCYZExZ3tthihmUW-15" target="79ETfCYZExZ3tthihmUW-18" edge="1">
          <mxGeometry relative="1" as="geometry">
            <Array as="points">
              <mxPoint x="690" y="80" />
              <mxPoint x="690" y="210" />
            </Array>
          </mxGeometry>
        </mxCell>
        <mxCell id="79ETfCYZExZ3tthihmUW-15" value="Building" style="rounded=1;arcSize=10;whiteSpace=wrap;html=1;align=center;" parent="1" vertex="1">
          <mxGeometry x="680" y="40" width="120" height="40" as="geometry" />
        </mxCell>
        <mxCell id="79ETfCYZExZ3tthihmUW-16" value="&lt;u&gt;id&lt;/u&gt;" style="ellipse;whiteSpace=wrap;html=1;align=center;" parent="1" vertex="1">
          <mxGeometry x="710" y="90" width="80" height="40" as="geometry" />
        </mxCell>
        <mxCell id="79ETfCYZExZ3tthihmUW-17" value="type" style="ellipse;whiteSpace=wrap;html=1;align=center;" parent="1" vertex="1">
          <mxGeometry x="710" y="140" width="80" height="40" as="geometry" />
        </mxCell>
        <mxCell id="79ETfCYZExZ3tthihmUW-18" value="level" style="ellipse;whiteSpace=wrap;html=1;align=center;" parent="1" vertex="1">
          <mxGeometry x="710" y="190" width="80" height="40" as="geometry" />
        </mxCell>
        <mxCell id="79ETfCYZExZ3tthihmUW-21" value="&lt;u&gt;id&lt;/u&gt;" style="ellipse;whiteSpace=wrap;html=1;align=center;" parent="1" vertex="1">
          <mxGeometry x="80" y="90" width="80" height="40" as="geometry" />
        </mxCell>
        <mxCell id="79ETfCYZExZ3tthihmUW-23" style="edgeStyle=orthogonalEdgeStyle;rounded=0;orthogonalLoop=1;jettySize=auto;html=1;exitX=0.25;exitY=1;exitDx=0;exitDy=0;entryX=0;entryY=0.5;entryDx=0;entryDy=0;" parent="1" source="79ETfCYZExZ3tthihmUW-26" target="79ETfCYZExZ3tthihmUW-28" edge="1">
          <mxGeometry relative="1" as="geometry">
            <mxPoint x="700" y="-170" as="targetPoint" />
            <Array as="points">
              <mxPoint x="700" y="-200" />
              <mxPoint x="700" y="-120" />
            </Array>
          </mxGeometry>
        </mxCell>
        <mxCell id="79ETfCYZExZ3tthihmUW-24" style="edgeStyle=orthogonalEdgeStyle;rounded=0;orthogonalLoop=1;jettySize=auto;html=1;exitX=0.25;exitY=1;exitDx=0;exitDy=0;entryX=0;entryY=0.5;entryDx=0;entryDy=0;" parent="1" source="79ETfCYZExZ3tthihmUW-26" target="79ETfCYZExZ3tthihmUW-27" edge="1">
          <mxGeometry relative="1" as="geometry">
            <Array as="points">
              <mxPoint x="700" y="-200" />
              <mxPoint x="700" y="-170" />
            </Array>
          </mxGeometry>
        </mxCell>
        <mxCell id="79ETfCYZExZ3tthihmUW-25" style="edgeStyle=orthogonalEdgeStyle;rounded=0;orthogonalLoop=1;jettySize=auto;html=1;exitX=0.25;exitY=1;exitDx=0;exitDy=0;entryX=0;entryY=0.5;entryDx=0;entryDy=0;" parent="1" source="79ETfCYZExZ3tthihmUW-26" target="79ETfCYZExZ3tthihmUW-29" edge="1">
          <mxGeometry relative="1" as="geometry">
            <Array as="points">
              <mxPoint x="700" y="-200" />
              <mxPoint x="700" y="-70" />
            </Array>
          </mxGeometry>
        </mxCell>
        <mxCell id="79ETfCYZExZ3tthihmUW-31" style="edgeStyle=orthogonalEdgeStyle;rounded=0;orthogonalLoop=1;jettySize=auto;html=1;exitX=0.25;exitY=1;exitDx=0;exitDy=0;entryX=0;entryY=0.5;entryDx=0;entryDy=0;" parent="1" source="79ETfCYZExZ3tthihmUW-26" target="79ETfCYZExZ3tthihmUW-30" edge="1">
          <mxGeometry relative="1" as="geometry">
            <Array as="points">
              <mxPoint x="700" y="-200" />
              <mxPoint x="700" y="-20" />
            </Array>
          </mxGeometry>
        </mxCell>
        <mxCell id="79ETfCYZExZ3tthihmUW-26" value="Troop" style="rounded=1;arcSize=10;whiteSpace=wrap;html=1;align=center;" parent="1" vertex="1">
          <mxGeometry x="680" y="-240" width="120" height="40" as="geometry" />
        </mxCell>
        <mxCell id="79ETfCYZExZ3tthihmUW-27" value="&lt;u&gt;id&lt;/u&gt;" style="ellipse;whiteSpace=wrap;html=1;align=center;" parent="1" vertex="1">
          <mxGeometry x="720" y="-190" width="80" height="40" as="geometry" />
        </mxCell>
        <mxCell id="79ETfCYZExZ3tthihmUW-28" value="type" style="ellipse;whiteSpace=wrap;html=1;align=center;" parent="1" vertex="1">
          <mxGeometry x="720" y="-140" width="80" height="40" as="geometry" />
        </mxCell>
        <mxCell id="79ETfCYZExZ3tthihmUW-29" value="size" style="ellipse;whiteSpace=wrap;html=1;align=center;" parent="1" vertex="1">
          <mxGeometry x="720" y="-90" width="80" height="40" as="geometry" />
        </mxCell>
        <mxCell id="79ETfCYZExZ3tthihmUW-30" value="level" style="ellipse;whiteSpace=wrap;html=1;align=center;" parent="1" vertex="1">
          <mxGeometry x="720" y="-40" width="80" height="40" as="geometry" />
        </mxCell>
        <mxCell id="79ETfCYZExZ3tthihmUW-32" style="edgeStyle=orthogonalEdgeStyle;rounded=0;orthogonalLoop=1;jettySize=auto;html=1;exitX=0.25;exitY=1;exitDx=0;exitDy=0;entryX=0;entryY=0.5;entryDx=0;entryDy=0;" parent="1" source="79ETfCYZExZ3tthihmUW-36" target="79ETfCYZExZ3tthihmUW-38" edge="1">
          <mxGeometry relative="1" as="geometry">
            <mxPoint x="-250" y="110" as="targetPoint" />
            <Array as="points">
              <mxPoint x="-250" y="80" />
              <mxPoint x="-250" y="160" />
            </Array>
          </mxGeometry>
        </mxCell>
        <mxCell id="79ETfCYZExZ3tthihmUW-33" style="edgeStyle=orthogonalEdgeStyle;rounded=0;orthogonalLoop=1;jettySize=auto;html=1;exitX=0.25;exitY=1;exitDx=0;exitDy=0;entryX=0;entryY=0.5;entryDx=0;entryDy=0;" parent="1" source="79ETfCYZExZ3tthihmUW-36" target="79ETfCYZExZ3tthihmUW-37" edge="1">
          <mxGeometry relative="1" as="geometry">
            <Array as="points">
              <mxPoint x="-250" y="80" />
              <mxPoint x="-250" y="110" />
            </Array>
          </mxGeometry>
        </mxCell>
        <mxCell id="79ETfCYZExZ3tthihmUW-34" style="edgeStyle=orthogonalEdgeStyle;rounded=0;orthogonalLoop=1;jettySize=auto;html=1;exitX=0.25;exitY=1;exitDx=0;exitDy=0;entryX=0;entryY=0.5;entryDx=0;entryDy=0;" parent="1" source="79ETfCYZExZ3tthihmUW-36" target="79ETfCYZExZ3tthihmUW-39" edge="1">
          <mxGeometry relative="1" as="geometry">
            <Array as="points">
              <mxPoint x="-250" y="80" />
              <mxPoint x="-250" y="210" />
            </Array>
          </mxGeometry>
        </mxCell>
        <mxCell id="79ETfCYZExZ3tthihmUW-36" value="Clan" style="rounded=1;arcSize=10;whiteSpace=wrap;html=1;align=center;" parent="1" vertex="1">
          <mxGeometry x="-280" y="40" width="120" height="40" as="geometry" />
        </mxCell>
        <mxCell id="79ETfCYZExZ3tthihmUW-37" value="&lt;u&gt;name&lt;/u&gt;" style="ellipse;whiteSpace=wrap;html=1;align=center;" parent="1" vertex="1">
          <mxGeometry x="-230" y="90" width="80" height="40" as="geometry" />
        </mxCell>
        <mxCell id="79ETfCYZExZ3tthihmUW-38" value="level" style="ellipse;whiteSpace=wrap;html=1;align=center;" parent="1" vertex="1">
          <mxGeometry x="-230" y="140" width="80" height="40" as="geometry" />
        </mxCell>
        <mxCell id="79ETfCYZExZ3tthihmUW-39" value="counter" style="ellipse;whiteSpace=wrap;html=1;align=center;" parent="1" vertex="1">
          <mxGeometry x="-230" y="190" width="80" height="40" as="geometry" />
        </mxCell>
        <mxCell id="FYoQL1W9lUMu6WMTSWeI-1" value="Owns" style="shape=rhombus;perimeter=rhombusPerimeter;whiteSpace=wrap;html=1;align=center;" parent="1" vertex="1">
          <mxGeometry x="200" y="40" width="120" height="40" as="geometry" />
        </mxCell>
        <mxCell id="FYoQL1W9lUMu6WMTSWeI-4" value="" style="endArrow=none;html=1;rounded=0;exitX=1;exitY=0.5;exitDx=0;exitDy=0;" parent="1" source="uwXu4CTKfHLPhr1_xGVC-1" target="FYoQL1W9lUMu6WMTSWeI-1" edge="1">
          <mxGeometry width="50" height="50" relative="1" as="geometry">
            <mxPoint x="180" y="70" as="sourcePoint" />
            <mxPoint x="230" y="20" as="targetPoint" />
          </mxGeometry>
        </mxCell>
        <mxCell id="FYoQL1W9lUMu6WMTSWeI-7" value="1" style="edgeLabel;html=1;align=center;verticalAlign=middle;resizable=0;points=[];" parent="FYoQL1W9lUMu6WMTSWeI-4" vertex="1" connectable="0">
          <mxGeometry x="-0.3214" y="-1" relative="1" as="geometry">
            <mxPoint as="offset" />
          </mxGeometry>
        </mxCell>
        <mxCell id="FYoQL1W9lUMu6WMTSWeI-5" value="" style="endArrow=none;html=1;rounded=0;entryX=1;entryY=0.5;entryDx=0;entryDy=0;" parent="1" source="79ETfCYZExZ3tthihmUW-8" target="FYoQL1W9lUMu6WMTSWeI-1" edge="1">
          <mxGeometry width="50" height="50" relative="1" as="geometry">
            <mxPoint x="170" y="70" as="sourcePoint" />
            <mxPoint x="210" y="70" as="targetPoint" />
          </mxGeometry>
        </mxCell>
        <mxCell id="FYoQL1W9lUMu6WMTSWeI-6" value="1" style="edgeLabel;html=1;align=center;verticalAlign=middle;resizable=0;points=[];" parent="FYoQL1W9lUMu6WMTSWeI-5" vertex="1" connectable="0">
          <mxGeometry x="-0.1929" y="-1" relative="1" as="geometry">
            <mxPoint as="offset" />
          </mxGeometry>
        </mxCell>
        <mxCell id="FYoQL1W9lUMu6WMTSWeI-8" value="built in" style="shape=rhombus;perimeter=rhombusPerimeter;whiteSpace=wrap;html=1;align=center;" parent="1" vertex="1">
          <mxGeometry x="520" y="40" width="120" height="40" as="geometry" />
        </mxCell>
        <mxCell id="FYoQL1W9lUMu6WMTSWeI-9" value="" style="endArrow=none;html=1;rounded=0;exitX=1;exitY=0.5;exitDx=0;exitDy=0;entryX=0;entryY=0.5;entryDx=0;entryDy=0;" parent="1" source="79ETfCYZExZ3tthihmUW-8" target="FYoQL1W9lUMu6WMTSWeI-8" edge="1">
          <mxGeometry width="50" height="50" relative="1" as="geometry">
            <mxPoint x="490" y="70" as="sourcePoint" />
            <mxPoint x="540" y="20" as="targetPoint" />
          </mxGeometry>
        </mxCell>
        <mxCell id="FYoQL1W9lUMu6WMTSWeI-13" value="1" style="edgeLabel;html=1;align=center;verticalAlign=middle;resizable=0;points=[];" parent="FYoQL1W9lUMu6WMTSWeI-9" vertex="1" connectable="0">
          <mxGeometry x="-0.2071" y="-1" relative="1" as="geometry">
            <mxPoint as="offset" />
          </mxGeometry>
        </mxCell>
        <mxCell id="FYoQL1W9lUMu6WMTSWeI-10" value="" style="endArrow=none;html=1;rounded=0;exitX=1;exitY=0.5;exitDx=0;exitDy=0;" parent="1" source="FYoQL1W9lUMu6WMTSWeI-8" edge="1">
          <mxGeometry width="50" height="50" relative="1" as="geometry">
            <mxPoint x="640" y="110" as="sourcePoint" />
            <mxPoint x="680" y="60" as="targetPoint" />
          </mxGeometry>
        </mxCell>
        <mxCell id="FYoQL1W9lUMu6WMTSWeI-11" value="N" style="edgeLabel;html=1;align=center;verticalAlign=middle;resizable=0;points=[];" parent="FYoQL1W9lUMu6WMTSWeI-10" vertex="1" connectable="0">
          <mxGeometry x="0.05" relative="1" as="geometry">
            <mxPoint as="offset" />
          </mxGeometry>
        </mxCell>
        <mxCell id="Kas5S80pnGMdLtjv9Y2c-2" style="edgeStyle=orthogonalEdgeStyle;rounded=0;orthogonalLoop=1;jettySize=auto;html=1;exitX=0.25;exitY=1;exitDx=0;exitDy=0;entryX=0;entryY=0.5;entryDx=0;entryDy=0;" parent="1" source="Kas5S80pnGMdLtjv9Y2c-4" target="Kas5S80pnGMdLtjv9Y2c-5" edge="1">
          <mxGeometry relative="1" as="geometry">
            <Array as="points">
              <mxPoint x="-580" y="80" />
              <mxPoint x="-580" y="110" />
            </Array>
          </mxGeometry>
        </mxCell>
        <mxCell id="Kas5S80pnGMdLtjv9Y2c-4" value="Clan battle" style="rounded=1;arcSize=10;whiteSpace=wrap;html=1;align=center;" parent="1" vertex="1">
          <mxGeometry x="-600" y="40" width="120" height="40" as="geometry" />
        </mxCell>
        <mxCell id="Kas5S80pnGMdLtjv9Y2c-5" value="&lt;u&gt;id&lt;/u&gt;" style="ellipse;whiteSpace=wrap;html=1;align=center;" parent="1" vertex="1">
          <mxGeometry x="-560" y="90" width="80" height="40" as="geometry" />
        </mxCell>
        <mxCell id="Kas5S80pnGMdLtjv9Y2c-8" value="compete" style="shape=rhombus;perimeter=rhombusPerimeter;whiteSpace=wrap;html=1;align=center;" parent="1" vertex="1">
          <mxGeometry x="-440" y="40" width="120" height="40" as="geometry" />
        </mxCell>
        <mxCell id="Kas5S80pnGMdLtjv9Y2c-9" value="" style="endArrow=none;html=1;rounded=0;exitX=0;exitY=0.5;exitDx=0;exitDy=0;entryX=1;entryY=0.5;entryDx=0;entryDy=0;" parent="1" source="79ETfCYZExZ3tthihmUW-36" target="Kas5S80pnGMdLtjv9Y2c-8" edge="1">
          <mxGeometry width="50" height="50" relative="1" as="geometry">
            <mxPoint x="-520" y="190" as="sourcePoint" />
            <mxPoint x="-460" y="150" as="targetPoint" />
          </mxGeometry>
        </mxCell>
        <mxCell id="Kas5S80pnGMdLtjv9Y2c-14" value="N" style="edgeLabel;html=1;align=center;verticalAlign=middle;resizable=0;points=[];" parent="Kas5S80pnGMdLtjv9Y2c-9" vertex="1" connectable="0">
          <mxGeometry x="-0.2071" relative="1" as="geometry">
            <mxPoint as="offset" />
          </mxGeometry>
        </mxCell>
        <mxCell id="Kas5S80pnGMdLtjv9Y2c-11" value="" style="endArrow=none;html=1;rounded=0;exitX=0;exitY=0.5;exitDx=0;exitDy=0;entryX=1;entryY=0.5;entryDx=0;entryDy=0;" parent="1" source="Kas5S80pnGMdLtjv9Y2c-8" target="Kas5S80pnGMdLtjv9Y2c-4" edge="1">
          <mxGeometry width="50" height="50" relative="1" as="geometry">
            <mxPoint x="-360" y="240" as="sourcePoint" />
            <mxPoint x="-320" y="190" as="targetPoint" />
          </mxGeometry>
        </mxCell>
        <mxCell id="Kas5S80pnGMdLtjv9Y2c-12" value="N" style="edgeLabel;html=1;align=center;verticalAlign=middle;resizable=0;points=[];" parent="Kas5S80pnGMdLtjv9Y2c-11" vertex="1" connectable="0">
          <mxGeometry x="0.05" relative="1" as="geometry">
            <mxPoint as="offset" />
          </mxGeometry>
        </mxCell>
        <mxCell id="Kas5S80pnGMdLtjv9Y2c-15" value="Join" style="shape=rhombus;perimeter=rhombusPerimeter;whiteSpace=wrap;html=1;align=center;" parent="1" vertex="1">
          <mxGeometry x="-120" y="40" width="120" height="40" as="geometry" />
        </mxCell>
        <mxCell id="Kas5S80pnGMdLtjv9Y2c-16" value="" style="endArrow=none;html=1;rounded=0;exitX=0;exitY=0.5;exitDx=0;exitDy=0;entryX=1;entryY=0.5;entryDx=0;entryDy=0;" parent="1" source="uwXu4CTKfHLPhr1_xGVC-1" target="Kas5S80pnGMdLtjv9Y2c-15" edge="1">
          <mxGeometry width="50" height="50" relative="1" as="geometry">
            <mxPoint y="-220" as="sourcePoint" />
            <mxPoint x="70" y="-260" as="targetPoint" />
          </mxGeometry>
        </mxCell>
        <mxCell id="Kas5S80pnGMdLtjv9Y2c-20" value="N" style="edgeLabel;html=1;align=center;verticalAlign=middle;resizable=0;points=[];" parent="Kas5S80pnGMdLtjv9Y2c-16" vertex="1" connectable="0">
          <mxGeometry x="-0.8333" y="1" relative="1" as="geometry">
            <mxPoint as="offset" />
          </mxGeometry>
        </mxCell>
        <mxCell id="Kas5S80pnGMdLtjv9Y2c-18" value="" style="endArrow=none;html=1;rounded=0;entryX=0;entryY=0.5;entryDx=0;entryDy=0;exitX=1;exitY=0.5;exitDx=0;exitDy=0;" parent="1" source="79ETfCYZExZ3tthihmUW-36" target="Kas5S80pnGMdLtjv9Y2c-15" edge="1">
          <mxGeometry width="50" height="50" relative="1" as="geometry">
            <mxPoint x="190" y="-370" as="sourcePoint" />
            <mxPoint x="40" y="-360" as="targetPoint" />
          </mxGeometry>
        </mxCell>
        <mxCell id="Kas5S80pnGMdLtjv9Y2c-19" value="1" style="edgeLabel;html=1;align=center;verticalAlign=middle;resizable=0;points=[];" parent="Kas5S80pnGMdLtjv9Y2c-18" vertex="1" connectable="0">
          <mxGeometry x="-0.1929" y="-1" relative="1" as="geometry">
            <mxPoint as="offset" />
          </mxGeometry>
        </mxCell>
        <mxCell id="kW6YJE7O8d7fyz0gYiz5-2" style="edgeStyle=orthogonalEdgeStyle;rounded=0;orthogonalLoop=1;jettySize=auto;html=1;exitX=0.25;exitY=1;exitDx=0;exitDy=0;entryX=0;entryY=0.5;entryDx=0;entryDy=0;" parent="1" source="kW6YJE7O8d7fyz0gYiz5-6" target="kW6YJE7O8d7fyz0gYiz5-8" edge="1">
          <mxGeometry relative="1" as="geometry">
            <mxPoint x="220" y="-90" as="targetPoint" />
            <Array as="points">
              <mxPoint x="220" y="-120" />
              <mxPoint x="220" y="-40" />
            </Array>
          </mxGeometry>
        </mxCell>
        <mxCell id="kW6YJE7O8d7fyz0gYiz5-3" style="edgeStyle=orthogonalEdgeStyle;rounded=0;orthogonalLoop=1;jettySize=auto;html=1;exitX=0.25;exitY=1;exitDx=0;exitDy=0;entryX=0;entryY=0.5;entryDx=0;entryDy=0;" parent="1" source="kW6YJE7O8d7fyz0gYiz5-6" target="kW6YJE7O8d7fyz0gYiz5-7" edge="1">
          <mxGeometry relative="1" as="geometry">
            <Array as="points">
              <mxPoint x="220" y="-120" />
              <mxPoint x="220" y="-90" />
            </Array>
          </mxGeometry>
        </mxCell>
        <mxCell id="kW6YJE7O8d7fyz0gYiz5-6" value="Attack" style="rounded=1;arcSize=10;whiteSpace=wrap;html=1;align=center;" parent="1" vertex="1">
          <mxGeometry x="200" y="-160" width="120" height="40" as="geometry" />
        </mxCell>
        <mxCell id="kW6YJE7O8d7fyz0gYiz5-7" value="&lt;u&gt;id&lt;/u&gt;" style="ellipse;whiteSpace=wrap;html=1;align=center;" parent="1" vertex="1">
          <mxGeometry x="240" y="-110" width="80" height="40" as="geometry" />
        </mxCell>
        <mxCell id="kW6YJE7O8d7fyz0gYiz5-8" value="experience points" style="ellipse;whiteSpace=wrap;html=1;align=center;" parent="1" vertex="1">
          <mxGeometry x="240" y="-60" width="80" height="40" as="geometry" />
        </mxCell>
        <mxCell id="kW6YJE7O8d7fyz0gYiz5-11" value="makes" style="shape=rhombus;perimeter=rhombusPerimeter;whiteSpace=wrap;html=1;align=center;" parent="1" vertex="1">
          <mxGeometry x="40" y="-40" width="120" height="40" as="geometry" />
        </mxCell>
        <mxCell id="kW6YJE7O8d7fyz0gYiz5-12" value="" style="endArrow=none;html=1;rounded=0;entryX=0.5;entryY=1;entryDx=0;entryDy=0;exitX=0.5;exitY=0;exitDx=0;exitDy=0;edgeStyle=orthogonalEdgeStyle;" parent="1" source="uwXu4CTKfHLPhr1_xGVC-1" target="kW6YJE7O8d7fyz0gYiz5-11" edge="1">
          <mxGeometry width="50" height="50" relative="1" as="geometry">
            <mxPoint x="50" y="-90" as="sourcePoint" />
            <mxPoint x="100" y="-140" as="targetPoint" />
          </mxGeometry>
        </mxCell>
        <mxCell id="kW6YJE7O8d7fyz0gYiz5-25" value="1" style="edgeLabel;html=1;align=center;verticalAlign=middle;resizable=0;points=[];" parent="kW6YJE7O8d7fyz0gYiz5-12" vertex="1" connectable="0">
          <mxGeometry x="-0.3103" relative="1" as="geometry">
            <mxPoint as="offset" />
          </mxGeometry>
        </mxCell>
        <mxCell id="kW6YJE7O8d7fyz0gYiz5-13" value="uses" style="shape=rhombus;perimeter=rhombusPerimeter;whiteSpace=wrap;html=1;align=center;" parent="1" vertex="1">
          <mxGeometry x="520" y="-240" width="120" height="40" as="geometry" />
        </mxCell>
        <mxCell id="kW6YJE7O8d7fyz0gYiz5-14" value="" style="endArrow=none;html=1;rounded=0;entryX=0;entryY=0.5;entryDx=0;entryDy=0;exitX=1;exitY=0.5;exitDx=0;exitDy=0;" parent="1" source="kW6YJE7O8d7fyz0gYiz5-13" target="79ETfCYZExZ3tthihmUW-26" edge="1">
          <mxGeometry width="50" height="50" relative="1" as="geometry">
            <mxPoint x="600" y="-100" as="sourcePoint" />
            <mxPoint x="650" y="-150" as="targetPoint" />
          </mxGeometry>
        </mxCell>
        <mxCell id="kW6YJE7O8d7fyz0gYiz5-15" value="1" style="edgeLabel;html=1;align=center;verticalAlign=middle;resizable=0;points=[];" parent="kW6YJE7O8d7fyz0gYiz5-14" vertex="1" connectable="0">
          <mxGeometry x="0.3857" y="1" relative="1" as="geometry">
            <mxPoint as="offset" />
          </mxGeometry>
        </mxCell>
        <mxCell id="kW6YJE7O8d7fyz0gYiz5-16" value="" style="endArrow=none;html=1;rounded=0;entryX=0;entryY=0.5;entryDx=0;entryDy=0;exitX=0.5;exitY=0;exitDx=0;exitDy=0;edgeStyle=orthogonalEdgeStyle;" parent="1" source="kW6YJE7O8d7fyz0gYiz5-6" target="kW6YJE7O8d7fyz0gYiz5-13" edge="1">
          <mxGeometry width="50" height="50" relative="1" as="geometry">
            <mxPoint x="400" y="-330" as="sourcePoint" />
            <mxPoint x="450" y="-380" as="targetPoint" />
          </mxGeometry>
        </mxCell>
        <mxCell id="kW6YJE7O8d7fyz0gYiz5-17" value="1" style="edgeLabel;html=1;align=center;verticalAlign=middle;resizable=0;points=[];" parent="kW6YJE7O8d7fyz0gYiz5-16" vertex="1" connectable="0">
          <mxGeometry x="-0.9016" y="-1" relative="1" as="geometry">
            <mxPoint as="offset" />
          </mxGeometry>
        </mxCell>
        <mxCell id="kW6YJE7O8d7fyz0gYiz5-18" value="targets" style="shape=rhombus;perimeter=rhombusPerimeter;whiteSpace=wrap;html=1;align=center;" parent="1" vertex="1">
          <mxGeometry x="360" y="-40" width="120" height="40" as="geometry" />
        </mxCell>
        <mxCell id="kW6YJE7O8d7fyz0gYiz5-19" value="" style="endArrow=none;html=1;rounded=0;entryX=0;entryY=0.5;entryDx=0;entryDy=0;exitX=0.5;exitY=0;exitDx=0;exitDy=0;edgeStyle=orthogonalEdgeStyle;" parent="1" source="kW6YJE7O8d7fyz0gYiz5-11" target="kW6YJE7O8d7fyz0gYiz5-6" edge="1">
          <mxGeometry width="50" height="50" relative="1" as="geometry">
            <mxPoint x="70" y="-70" as="sourcePoint" />
            <mxPoint x="120" y="-120" as="targetPoint" />
          </mxGeometry>
        </mxCell>
        <mxCell id="kW6YJE7O8d7fyz0gYiz5-26" value="N" style="edgeLabel;html=1;align=center;verticalAlign=middle;resizable=0;points=[];" parent="kW6YJE7O8d7fyz0gYiz5-19" vertex="1" connectable="0">
          <mxGeometry x="0.8155" y="1" relative="1" as="geometry">
            <mxPoint y="1" as="offset" />
          </mxGeometry>
        </mxCell>
        <mxCell id="kW6YJE7O8d7fyz0gYiz5-21" value="" style="endArrow=none;html=1;rounded=0;exitX=0.5;exitY=0;exitDx=0;exitDy=0;entryX=1;entryY=0.5;entryDx=0;entryDy=0;edgeStyle=orthogonalEdgeStyle;" parent="1" source="kW6YJE7O8d7fyz0gYiz5-18" target="kW6YJE7O8d7fyz0gYiz5-6" edge="1">
          <mxGeometry width="50" height="50" relative="1" as="geometry">
            <mxPoint x="390" y="-70" as="sourcePoint" />
            <mxPoint x="440" y="-120" as="targetPoint" />
          </mxGeometry>
        </mxCell>
        <mxCell id="kW6YJE7O8d7fyz0gYiz5-24" value="1" style="edgeLabel;html=1;align=center;verticalAlign=middle;resizable=0;points=[];" parent="kW6YJE7O8d7fyz0gYiz5-21" vertex="1" connectable="0">
          <mxGeometry x="0.8486" relative="1" as="geometry">
            <mxPoint as="offset" />
          </mxGeometry>
        </mxCell>
        <mxCell id="kW6YJE7O8d7fyz0gYiz5-22" value="" style="endArrow=none;html=1;rounded=0;exitX=0.5;exitY=0;exitDx=0;exitDy=0;entryX=0.5;entryY=1;entryDx=0;entryDy=0;edgeStyle=orthogonalEdgeStyle;" parent="1" source="79ETfCYZExZ3tthihmUW-8" target="kW6YJE7O8d7fyz0gYiz5-18" edge="1">
          <mxGeometry width="50" height="50" relative="1" as="geometry">
            <mxPoint x="430" y="-30" as="sourcePoint" />
            <mxPoint x="330" y="-130" as="targetPoint" />
          </mxGeometry>
        </mxCell>
        <mxCell id="kW6YJE7O8d7fyz0gYiz5-23" value="1" style="edgeLabel;html=1;align=center;verticalAlign=middle;resizable=0;points=[];" parent="kW6YJE7O8d7fyz0gYiz5-22" vertex="1" connectable="0">
          <mxGeometry x="-0.4" y="-3" relative="1" as="geometry">
            <mxPoint as="offset" />
          </mxGeometry>
        </mxCell>
      </root>
    </mxGraphModel>
  </diagram>
</mxfile>
